<svg fill="none" viewBox="0 0 78 26" xmlns="http://www.w3.org/2000/svg"><path d="M9.947 9.153v2.64h6.373c-.315 3.702-3.426 5.28-6.362 5.28-3.756 0-7.034-2.926-7.034-7.028 0-3.996 3.124-7.074 7.042-7.074 3.023 0 4.804 1.908 4.804 1.908l1.867-1.914S14.241.324 9.871.324C4.306.324 0 4.974 0 9.998c0 4.922 4.05 9.722 10.012 9.722 5.243 0 9.082-3.557 9.082-8.817 0-1.11-.163-1.751-.163-1.751H9.947ZM26.292 7.24c-3.687 0-6.329 2.854-6.329 6.182 0 3.378 2.563 6.286 6.373 6.286 3.448 0 6.273-2.61 6.273-6.213 0-4.129-3.286-6.255-6.317-6.255Zm.037 2.448c1.813 0 3.531 1.452 3.531 3.79 0 2.29-1.71 3.783-3.54 3.783-2.009 0-3.594-1.594-3.594-3.8 0-2.16 1.566-3.773 3.603-3.773Zm13.728-2.448c-3.687 0-6.33 2.854-6.33 6.182 0 3.378 2.564 6.286 6.373 6.286 3.449 0 6.274-2.61 6.274-6.213 0-4.129-3.287-6.255-6.317-6.255Zm.036 2.448c1.813 0 3.531 1.452 3.531 3.79 0 2.29-1.71 3.783-3.539 3.783-2.01 0-3.594-1.594-3.594-3.8 0-2.16 1.565-3.773 3.602-3.773Zm13.464-2.442c-3.384 0-6.043 2.935-6.043 6.23 0 3.751 3.083 6.24 5.985 6.24 1.794 0 2.748-.706 3.453-1.515v1.23c0 2.15-1.319 3.438-3.31 3.438-1.923 0-2.887-1.416-3.222-2.22L48 21.653c.859 1.797 2.587 3.672 5.663 3.672 3.364 0 5.929-2.099 5.929-6.5V7.622h-2.64v1.056c-.812-.866-1.922-1.43-3.395-1.43Zm.245 2.444c1.66 0 3.363 1.403 3.363 3.798 0 2.435-1.7 3.777-3.4 3.777-1.803 0-3.482-1.45-3.482-3.754 0-2.393 1.743-3.821 3.52-3.821Zm17.526-2.459c-3.193 0-5.873 2.515-5.873 6.226 0 3.927 2.988 6.255 6.18 6.255 2.663 0 4.298-1.443 5.273-2.736l-2.176-1.433c-.565.867-1.509 1.716-3.085 1.716-1.77 0-2.583-.96-3.087-1.89L77 11.902l-.438-1.017c-.816-1.99-2.718-3.652-5.235-3.652Zm.11 2.398c1.15 0 1.978.605 2.33 1.331l-5.638 2.334c-.243-1.807 1.485-3.665 3.308-3.665ZM61.43 19.343h2.773V.968H61.43v18.375Z" fill="#292f34" class="fill-000000"></path></svg>