<?xml version="1.0" encoding="utf-8"?>
<svg viewBox="0 0 5936.328 1608.92" fill-rule="evenodd" clip-rule="evenodd" stroke-linejoin="round" stroke-miterlimit="2" xmlns="http://www.w3.org/2000/svg">
  <path d="M 3953.376 0.109 L 3703.001 0.109 L 3703.001 1400.401 C 3929.768 1408.206 4156.394 1419.659 4382.793 1434.756 L 4382.793 1188.051 C 4239.739 1178.523 4096.592 1170.431 3953.376 1163.776 L 3953.376 0.109 Z M 5943.169 0.25 L 5668.127 0.25 L 5486.835 420.463 L 5323.96 0.25 L 5053.043 0.25 L 5344.168 751.113 L 5026.377 1487.735 C 5114.293 1496.31 5201.96 1505.46 5289.543 1515.127 L 5474.377 1086.83 L 5657.419 1558.964 C 5752.752 1571.222 5847.836 1584.014 5942.752 1597.56 L 5943.169 1597.397 L 5617.002 756.184 L 5943.169 0.25 Z M 2843.529 1388.164 L 3093.917 1388.11 L 3093.917 818.509 L 3433.334 818.509 L 3433.334 571.805 L 3093.917 571.805 L 3093.917 249.188 L 3542.5 249.188 L 3542.5 0.263 L 2843.529 0.263 L 2843.529 1388.164 Z M 1908.533 249.171 L 2170.587 249.171 L 2170.587 1402.835 C 2254.031 1399.707 2337.492 1397.064 2420.966 1394.906 L 2420.966 249.171 L 2683.008 249.171 L 2683.008 0.25 L 1908.533 0.25 L 1908.533 249.171 Z M 1052.532 1474.535 C 1284.062 1453.477 1515.924 1436.253 1748.024 1422.868 L 1748.024 1176.135 C 1599.552 1184.735 1451.173 1194.874 1302.911 1206.551 L 1302.911 833.047 C 1399.982 832.08 1527.803 829.118 1641.041 830.526 L 1641.041 583.801 C 1550.574 583.58 1405.174 585.063 1302.911 586.372 L 1302.911 249.188 L 1748.024 249.188 L 1748.024 0.263 L 1052.532 0.263 L 1052.532 1474.535 Z M 561.382 904.189 L 235.277 0.25 L -2.681 0.25 L -2.681 1597.593 C 80.71 1585.729 164.171 1574.361 247.698 1563.489 L 247.698 694.859 L 537.661 1527.822 C 628.963 1517.229 720.333 1507.226 811.765 1497.814 L 811.765 0.25 L 561.382 0.25 L 561.382 904.189 Z M 4589.21 1449.61 C 4672.793 1456.006 4756.251 1462.868 4839.626 1470.285 L 4839.626 0.25 L 4589.21 0.25 L 4589.21 1449.61 Z" fill="#292f34" fill-rule="nonzero" class="fill-ed1c24"/>
</svg>